<svg xmlns="http://www.w3.org/2000/svg" width="15.719" height="20" xmlns:v="https://vecta.io/nano"><path d="M13.681 2.049A7.67 7.67 0 0 0 8.319 0C6.004-.088 3.755.78 2.1 2.4.786 3.7.033 5.463 0 7.311c0 2.226.931 3.935 2.491 4.571.099.042.205.064.313.065a.7.7 0 0 0 .68-.561l.228-.9c.117-.322.027-.682-.226-.912-.459-.557-.695-1.265-.661-1.986a5 5 0 0 1 5.183-5.032c2.671 0 4.331 1.518 4.331 3.962.035 1.398-.287 2.783-.936 4.022-.418.907-1.292 1.519-2.288 1.6-.466.011-.911-.192-1.207-.552a1.39 1.39 0 0 1-.243-1.206l.439-1.538a9.52 9.52 0 0 0 .558-2.5 1.82 1.82 0 0 0-1.83-2c-1.391 0-2.481 1.413-2.481 3.217-.003.616.113 1.228.342 1.8l-1.414 5.99c-.114.486-.8 4.324.337 4.63 1.28.344 2.424-3.394 2.54-3.817l.627-2.441a3.87 3.87 0 0 0 2.581 1c1.82-.001 3.532-.862 4.618-2.323a9.28 9.28 0 0 0 1.737-5.67c-.018-1.772-.753-3.461-2.038-4.681z" fill="#898989"/></svg>