<svg xmlns="http://www.w3.org/2000/svg" width="24.877" height="24.877" fill="#c8c8c8" xmlns:v="https://vecta.io/nano"><path d="M7.337 18.221c3.171 0 6.093-2.724 7.109-3.9a.73.73 0 0 0 0-.955c-1.016-1.172-3.939-3.9-7.109-3.9s-6.142 2.724-7.158 3.9a.73.73 0 0 0 0 .955c1.016 1.176 3.987 3.9 7.158 3.9zm0-6.559c1.207 0 2.186.979 2.186 2.186s-.979 2.186-2.186 2.186-2.186-.979-2.186-2.186a2.19 2.19 0 0 1 2.186-2.187zm0 2.915a.73.73 0 1 0-.729-.729.73.73 0 0 0 .729.729z"/><path d="M20.504 4.373h3.946L20.504.427zm4.375 1.458h-5.1a.73.73 0 0 1-.729-.729V0H6.608a.73.73 0 0 0-.729.729V8.17a7.01 7.01 0 0 1 2.915 0v-.153a.73.73 0 0 1 .729-.729h11.71a.73.73 0 0 1 .729.729v11.661a.73.73 0 0 1-.729.729H9.523a.73.73 0 0 1-.729-.729v-.153a7.01 7.01 0 0 1-2.915 0v4.623a.73.73 0 0 0 .729.729h17.54a.73.73 0 0 0 .729-.729zm-8.017 0H9.525a.73.73 0 0 1-.729-.729.73.73 0 0 1 .729-.729h7.337a.73.73 0 0 1 .729.729.73.73 0 0 1-.729.729zm-6.259 13.115h9.9v-10.2h-9.9a15.19 15.19 0 0 1 4.944 3.669c.711.823.711 2.044 0 2.867a15.19 15.19 0 0 1-4.944 3.664z"/></svg>