<svg xmlns="http://www.w3.org/2000/svg" width="22.439" height="24.877" fill="#c8c8c8" xmlns:v="https://vecta.io/nano"><path d="M12.946 5.1h2.746l-4.2-4.422v2.959c0 .804.65 1.458 1.454 1.463zm2.796 6.383a6.7 6.7 0 1 0 6.7 6.7 6.7 6.7 0 0 0-6.7-6.7zm3.6 7.269l-3.284 3.525a.45.45 0 0 1-.331.14c-.123.001-.241-.049-.325-.14l-3.278-3.525a.45.45 0 0 1 .022-.633c.184-.168.467-.158.639.022l2.511 2.69v-6.406a.45.45 0 1 1 .9 0v6.406l2.5-2.69c.169-.179.451-.188.63-.02s.188.451.019.631zm0 0"/><path d="M8.39,16.252H3.519a.448.448,0,1,1,0-.9H8.687a7.961,7.961,0,0,1,1.138-1.962h-6.3a.448.448,0,1,1,0-.9h7.157a7.716,7.716,0,0,1,5.072-1.928c.185,0,.336.017.561.034V6H12.946a2.362,2.362,0,0,1-2.354-2.359V0H2A2.006,2.006,0,0,0,0,2.023v17.1a1.986,1.986,0,0,0,2,2H8.748a7.655,7.655,0,0,1-.359-4.876ZM3.519,9.7H9.2a.448.448,0,0,1,0,.9H3.519a.448.448,0,0,1,0-.9Zm0,0"/></svg>