<svg xmlns="http://www.w3.org/2000/svg" version="1.0" width="247.000000pt" height="26.000000pt" viewBox="0 0 247.000000 26.000000" preserveAspectRatio="xMidYMid meet">
    <g transform="translate(0.000000,26.000000) scale(0.100000,-0.100000)" fill="#000000" stroke="none">
    <path d="M667 218 c-99 -125 -155 -203 -151 -210 3 -4 20 -8 37 -8 28 0 39 10 90 75 32 41 61 75 66 75 8 0 71 -75 71 -84 0 -3 -20 -6 -44 -6 -37 0 -48 -5 -66 -28 l-22 -27 123 -3 c68 -1 127 2 132 7 6 6 -28 54 -92 130 -56 67 -104 121 -106 121 -2 0 -19 -19 -38 -42z"></path>
    <path d="M2188 169 c-140 -178 -136 -169 -80 -169 34 1 41 7 96 77 l59 77 40 -45 39 -44 -43 -3 c-41 -3 -89 -32 -89 -54 0 -11 247 -10 254 0 4 7 -137 187 -189 241 -11 11 -25 -2 -87 -80z"></path>
    <path d="M2 128 l3 -123 35 0 c31 0 35 3 38 28 l3 27 90 0 c86 0 90 -1 116 -30 19 -22 35 -30 59 -30 41 0 51 15 27 42 -15 17 -15 22 -4 26 55 19 78 95 43 138 -32 40 -54 44 -237 44 l-176 0 3 -122z m346 50 c16 -16 15 -33 -4 -52 -12 -13 -40 -16 -140 -16 l-124 0 0 40 0 40 128 0 c86 0 132 -4 140 -12z"></path>
    <path d="M1034 237 c-2 -7 -3 -62 -2 -123 l3 -109 35 0 c31 0 35 3 38 27 l3 28 172 2 172 3 0 25 0 25 -172 3 -173 2 0 35 0 35 164 0 c133 0 166 3 176 15 7 8 10 22 6 30 -4 13 -37 15 -211 15 -161 0 -207 -3 -211 -13z"></path>
    <path d="M1600 125 l0 -125 35 0 c33 0 35 2 35 33 0 35 15 57 38 57 8 0 50 -20 94 -45 61 -34 91 -45 124 -45 29 0 44 4 44 13 0 6 -43 35 -95 62 -52 28 -95 52 -95 55 0 3 38 27 85 54 47 26 85 52 85 57 0 5 -21 9 -48 9 -39 0 -62 -9 -132 -50 -47 -27 -88 -50 -92 -50 -5 0 -8 23 -8 50 l0 50 -35 0 -35 0 0 -125z"></path>
    </g>
</svg>