<svg width="65" height="65" viewBox="0 0 65 65" fill="none" xmlns="http://www.w3.org/2000/svg">
<g clip-path="url(#clip0_103_2)">
<path d="M32.5 0C14.55 0 0 14.55 0 32.5C0 50.45 14.55 65 32.5 65C50.45 65 65 50.45 65 32.5C65 14.55 50.45 0 32.5 0ZM32.5 59.9219C17.3549 59.9219 5.07812 47.6451 5.07812 32.5C5.07812 17.3549 17.3549 5.07812 32.5 5.07812C47.6451 5.07812 59.9219 17.3549 59.9219 32.5C59.9219 47.6451 47.6451 59.9219 32.5 59.9219Z" fill="white" stroke="white" stroke-width="0.126953"/>
<path d="M24.375 42.6562L44.6875 32.5L24.375 22.3438V42.6562Z" fill="white" stroke="white" stroke-width="0.126953"/>
</g>
<defs>
<clipPath id="clip0_103_2">
<rect width="65" height="65" fill="white"/>
</clipPath>
</defs>
</svg>
